<svg width="16" height="17" viewBox="0 0 16 17" fill="none" xmlns="http://www.w3.org/2000/svg">
<path d="M9.99921 14.6942V12.0275C10.092 11.1924 9.8525 10.3543 9.33254 9.69417C11.3325 9.69417 13.3325 8.36084 13.3325 6.02751C13.3859 5.19417 13.1525 4.37417 12.6659 3.69417C12.8525 2.92751 12.8525 2.12751 12.6659 1.36084C12.6659 1.36084 11.9992 1.36084 10.6659 2.36084C8.90588 2.02751 7.09254 2.02751 5.33254 2.36084C3.99921 1.36084 3.33254 1.36084 3.33254 1.36084C3.13254 2.12751 3.13254 2.92751 3.33254 3.69417C2.84713 4.37143 2.61153 5.19603 2.66588 6.02751C2.66588 8.36084 4.66588 9.69417 6.66588 9.69417C6.40588 10.0208 6.21254 10.3942 6.09921 10.7942C5.98588 11.1942 5.95254 11.6142 5.99921 12.0275V14.6942" stroke="#F1F1F1" stroke-width="1.33333" stroke-linecap="round" stroke-linejoin="round"/>
<path d="M6.00065 12.0272C2.99398 13.3605 2.66732 10.6938 1.33398 10.6938" stroke="#F1F1F1" stroke-width="1.33333" stroke-linecap="round" stroke-linejoin="round"/>
</svg>
