<svg width="16" height="17" viewBox="0 0 16 17" fill="none" xmlns="http://www.w3.org/2000/svg">
<path d="M10.666 5.36084C11.7269 5.36084 12.7443 5.78227 13.4944 6.53241C14.2446 7.28256 14.666 8.29997 14.666 9.36084V14.0275H11.9993V9.36084C11.9993 9.00722 11.8589 8.66808 11.6088 8.41803C11.3588 8.16798 11.0196 8.02751 10.666 8.02751C10.3124 8.02751 9.97326 8.16798 9.72321 8.41803C9.47316 8.66808 9.33268 9.00722 9.33268 9.36084V14.0275H6.66602V9.36084C6.66602 8.29997 7.08744 7.28256 7.83759 6.53241C8.58773 5.78227 9.60515 5.36084 10.666 5.36084Z" stroke="#F1F1F1" stroke-width="1.33333" stroke-linecap="round" stroke-linejoin="round"/>
<path d="M4.00065 6.02734H1.33398V14.0273H4.00065V6.02734Z" stroke="#F1F1F1" stroke-width="1.33333" stroke-linecap="round" stroke-linejoin="round"/>
<path d="M2.66732 4.02751C3.4037 4.02751 4.00065 3.43055 4.00065 2.69417C4.00065 1.95779 3.4037 1.36084 2.66732 1.36084C1.93094 1.36084 1.33398 1.95779 1.33398 2.69417C1.33398 3.43055 1.93094 4.02751 2.66732 4.02751Z" stroke="#F1F1F1" stroke-width="1.33333" stroke-linecap="round" stroke-linejoin="round"/>
</svg>
