<svg width="20" height="22" viewBox="0 0 20 22" fill="none" xmlns="http://www.w3.org/2000/svg">
<path d="M1.9995 13.1552C1.81027 13.1558 1.62474 13.1028 1.46446 13.0022C1.30418 12.9016 1.17574 12.7575 1.09405 12.5868C1.01237 12.4162 0.980797 12.2258 1.003 12.0379C1.02521 11.8499 1.10028 11.6722 1.2195 11.5252L11.1195 1.32519C11.1938 1.23947 11.295 1.18155 11.4065 1.16093C11.518 1.1403 11.6332 1.1582 11.7332 1.2117C11.8332 1.26519 11.9121 1.35109 11.9568 1.4553C12.0016 1.55951 12.0096 1.67584 11.9795 1.78519L10.0595 7.80519C10.0029 7.95672 9.98388 8.11971 10.0041 8.2802C10.0243 8.44069 10.0832 8.59387 10.1756 8.72662C10.268 8.85936 10.3913 8.96771 10.5348 9.04235C10.6783 9.117 10.8377 9.15572 10.9995 9.15519H17.9995C18.1887 9.15455 18.3743 9.20761 18.5345 9.30821C18.6948 9.40882 18.8233 9.55284 18.905 9.72354C18.9866 9.89423 19.0182 10.0846 18.996 10.2725C18.9738 10.4605 18.8987 10.6382 18.7795 10.7852L8.8795 20.9852C8.80524 21.0709 8.70404 21.1288 8.59252 21.1495C8.481 21.1701 8.36578 21.1522 8.26577 21.0987C8.16577 21.0452 8.08692 20.9593 8.04217 20.8551C7.99742 20.7509 7.98943 20.6345 8.0195 20.5252L9.9395 14.5052C9.99612 14.3537 10.0151 14.1907 9.99491 14.0302C9.97469 13.8697 9.91584 13.7165 9.82341 13.5838C9.73098 13.451 9.60773 13.3427 9.46423 13.268C9.32073 13.1934 9.16126 13.1547 8.9995 13.1552H1.9995Z" stroke="#D946EF" stroke-width="1.33333" stroke-linecap="round" stroke-linejoin="round"/>
</svg>
