<svg width="16" height="17" viewBox="0 0 16 17" fill="none" xmlns="http://www.w3.org/2000/svg">
<path d="M2.66602 13.1549V3.15495C2.66602 2.71292 2.84161 2.289 3.15417 1.97644C3.46673 1.66388 3.89065 1.48828 4.33268 1.48828H12.666C12.8428 1.48828 13.0124 1.55852 13.1374 1.68354C13.2624 1.80857 13.3327 1.97814 13.3327 2.15495V14.1549C13.3327 14.3318 13.2624 14.5013 13.1374 14.6264C13.0124 14.7514 12.8428 14.8216 12.666 14.8216H4.33268C3.89065 14.8216 3.46673 14.646 3.15417 14.3335C2.84161 14.0209 2.66602 13.597 2.66602 13.1549ZM2.66602 13.1549C2.66602 12.7129 2.84161 12.289 3.15417 11.9764C3.46673 11.6639 3.89065 11.4883 4.33268 11.4883H13.3327" stroke="#8E9196" stroke-width="1.33333" stroke-linecap="round" stroke-linejoin="round"/>
<path d="M5.33398 7.48828H10.6673" stroke="#8E9196" stroke-width="1.33333" stroke-linecap="round" stroke-linejoin="round"/>
<path d="M5.33398 4.82227H9.33398" stroke="#8E9196" stroke-width="1.33333" stroke-linecap="round" stroke-linejoin="round"/>
</svg>
